<mxfile host="app.diagrams.net" modified="2023-04-17T08:18:59.745Z" agent="Mozilla/5.0 (Windows NT 10.0; Win64; x64) AppleWebKit/537.36 (KHTML, like Gecko) Chrome/111.0.0.0 Safari/537.36" etag="2eaMrHfZPXLT1NcAnD2t" version="21.1.8" type="github">
  <diagram id="WUMDJL5sOeYgkHL_OH6m" name="Page-1">
    <mxGraphModel dx="2514" dy="899" grid="1" gridSize="10" guides="1" tooltips="1" connect="1" arrows="1" fold="1" page="1" pageScale="1" pageWidth="827" pageHeight="1169" math="0" shadow="0">
      <root>
        <mxCell id="0" />
        <mxCell id="1" parent="0" />
        <mxCell id="KDDWT8gn8KjXPzjt3fRh-1" value="&lt;font style=&quot;font-size: 17px;&quot;&gt;&lt;b&gt;Ria-service&amp;nbsp;&lt;br&gt;table design&lt;/b&gt;&lt;/font&gt;" style="shape=cylinder3;whiteSpace=wrap;html=1;boundedLbl=1;backgroundOutline=1;size=15;fillColor=#fff2cc;strokeColor=#d6b656;" vertex="1" parent="1">
          <mxGeometry x="-410" y="30" width="150" height="130" as="geometry" />
        </mxCell>
        <mxCell id="KDDWT8gn8KjXPzjt3fRh-7" value="order_operation" style="swimlane;" vertex="1" parent="1">
          <mxGeometry x="-230" y="200" width="290" height="820" as="geometry" />
        </mxCell>
        <mxCell id="KDDWT8gn8KjXPzjt3fRh-59" style="edgeStyle=orthogonalEdgeStyle;rounded=0;orthogonalLoop=1;jettySize=auto;html=1;" edge="1" parent="KDDWT8gn8KjXPzjt3fRh-7" source="KDDWT8gn8KjXPzjt3fRh-13">
          <mxGeometry relative="1" as="geometry">
            <mxPoint x="500" y="359.9999999999998" as="targetPoint" />
          </mxGeometry>
        </mxCell>
        <mxCell id="KDDWT8gn8KjXPzjt3fRh-13" value="&lt;div style=&quot;background-color: rgb(255, 255, 254); line-height: 18px;&quot;&gt;&lt;div&gt;&amp;nbsp;&amp;nbsp;&amp;nbsp;&amp;nbsp;&amp;nbsp;&amp;nbsp;&amp;nbsp;&amp;nbsp;&quot;TransRefID&quot;:&amp;nbsp;&lt;span style=&quot;color: #0451a5;&quot;&gt;&quot;248864835&quot;&lt;/span&gt;,&lt;/div&gt;&lt;div&gt;&amp;nbsp;&amp;nbsp;&amp;nbsp;&amp;nbsp;&amp;nbsp;&amp;nbsp;&amp;nbsp;&amp;nbsp;&lt;span style=&quot;color: #a31515;&quot;&gt;&quot;OrderFound&quot;&lt;/span&gt;:&amp;nbsp;&lt;span style=&quot;color: #0451a5;&quot;&gt;&quot;true&quot;&lt;/span&gt;,&lt;/div&gt;&lt;div&gt;&amp;nbsp;&amp;nbsp;&amp;nbsp;&amp;nbsp;&amp;nbsp;&amp;nbsp;&amp;nbsp;&amp;nbsp;&lt;span style=&quot;color: #a31515;&quot;&gt;&quot;PIN&quot;&lt;/span&gt;:&amp;nbsp;&lt;span style=&quot;color: #0451a5;&quot;&gt;&quot;12055477781&quot;&lt;/span&gt;,&lt;/div&gt;&lt;div&gt;&amp;nbsp;&amp;nbsp;&amp;nbsp;&amp;nbsp;&amp;nbsp;&amp;nbsp;&amp;nbsp;&amp;nbsp;&lt;span style=&quot;color: #a31515;&quot;&gt;&quot;OrderNo&quot;&lt;/span&gt;:&amp;nbsp;&lt;span style=&quot;color: #0451a5;&quot;&gt;&quot;IL2010354055&quot;&lt;/span&gt;,&lt;/div&gt;&lt;div&gt;&amp;nbsp;&amp;nbsp;&amp;nbsp;&amp;nbsp;&amp;nbsp;&amp;nbsp;&amp;nbsp;&amp;nbsp;&lt;span style=&quot;color: #a31515;&quot;&gt;&quot;SeqIDRA&quot;&lt;/span&gt;:&amp;nbsp;&lt;span style=&quot;color: #0451a5;&quot;&gt;&quot;3994&quot;&lt;/span&gt;,&lt;/div&gt;&lt;div&gt;&amp;nbsp;&amp;nbsp;&amp;nbsp;&amp;nbsp;&amp;nbsp;&amp;nbsp;&amp;nbsp;&amp;nbsp;&lt;span style=&quot;color: #a31515;&quot;&gt;&quot;SeqIDPA&quot;&lt;/span&gt;:&amp;nbsp;&lt;span style=&quot;color: #0451a5;&quot;&gt;&quot;158572&quot;&lt;/span&gt;,&lt;/div&gt;&lt;div&gt;&amp;nbsp;&amp;nbsp;&amp;nbsp;&amp;nbsp;&amp;nbsp;&amp;nbsp;&amp;nbsp;&amp;nbsp;&lt;span style=&quot;color: #a31515;&quot;&gt;&quot;OrderDate&quot;&lt;/span&gt;:&amp;nbsp;&lt;span style=&quot;color: #0451a5;&quot;&gt;&quot;20230413&quot;&lt;/span&gt;,&lt;/div&gt;&lt;div&gt;&amp;nbsp;&amp;nbsp;&amp;nbsp;&amp;nbsp;&amp;nbsp;&amp;nbsp;&amp;nbsp;&amp;nbsp;&lt;span style=&quot;color: #a31515;&quot;&gt;&quot;CountryFrom&quot;&lt;/span&gt;:&amp;nbsp;&lt;span style=&quot;color: #0451a5;&quot;&gt;&quot;IL&quot;&lt;/span&gt;,&lt;/div&gt;&lt;div&gt;&amp;nbsp;&amp;nbsp;&amp;nbsp;&amp;nbsp;&amp;nbsp;&amp;nbsp;&amp;nbsp;&amp;nbsp;&lt;span style=&quot;color: #a31515;&quot;&gt;&quot;CustNameFirst&quot;&lt;/span&gt;:&amp;nbsp;&lt;span style=&quot;color: #0451a5;&quot;&gt;&quot;Bob&quot;&lt;/span&gt;,&lt;/div&gt;&lt;div&gt;&amp;nbsp;&amp;nbsp;&amp;nbsp;&amp;nbsp;&amp;nbsp;&amp;nbsp;&amp;nbsp;&amp;nbsp;&lt;span style=&quot;color: #a31515;&quot;&gt;&quot;CustNameLast1&quot;&lt;/span&gt;:&amp;nbsp;&lt;span style=&quot;color: #0451a5;&quot;&gt;&quot;Jyertn&quot;&lt;/span&gt;,&lt;/div&gt;&lt;div&gt;&amp;nbsp;&amp;nbsp;&amp;nbsp;&amp;nbsp;&amp;nbsp;&amp;nbsp;&amp;nbsp;&amp;nbsp;&lt;span style=&quot;color: #a31515;&quot;&gt;&quot;CustAddress&quot;&lt;/span&gt;:&amp;nbsp;&lt;span style=&quot;color: #0451a5;&quot;&gt;&quot;main&amp;nbsp;street&amp;nbsp;123&quot;&lt;/span&gt;,&lt;/div&gt;&lt;div&gt;&amp;nbsp;&amp;nbsp;&amp;nbsp;&amp;nbsp;&amp;nbsp;&amp;nbsp;&amp;nbsp;&amp;nbsp;&lt;span style=&quot;color: #a31515;&quot;&gt;&quot;CustCity&quot;&lt;/span&gt;:&amp;nbsp;&lt;span style=&quot;color: #0451a5;&quot;&gt;&quot;City&quot;&lt;/span&gt;,&lt;/div&gt;&lt;div&gt;&amp;nbsp;&amp;nbsp;&amp;nbsp;&amp;nbsp;&amp;nbsp;&amp;nbsp;&amp;nbsp;&amp;nbsp;&lt;span style=&quot;color: #a31515;&quot;&gt;&quot;CustState&quot;&lt;/span&gt;:&amp;nbsp;&lt;span style=&quot;color: #0451a5;&quot;&gt;&quot;STATE&quot;&lt;/span&gt;,&lt;/div&gt;&lt;div&gt;&amp;nbsp;&amp;nbsp;&amp;nbsp;&amp;nbsp;&amp;nbsp;&amp;nbsp;&amp;nbsp;&amp;nbsp;&lt;span style=&quot;color: #a31515;&quot;&gt;&quot;CustCountry&quot;&lt;/span&gt;:&amp;nbsp;&lt;span style=&quot;color: #0451a5;&quot;&gt;&quot;IL&quot;&lt;/span&gt;,&lt;/div&gt;&lt;div&gt;&amp;nbsp;&amp;nbsp;&amp;nbsp;&amp;nbsp;&amp;nbsp;&amp;nbsp;&amp;nbsp;&amp;nbsp;&lt;span style=&quot;color: #a31515;&quot;&gt;&quot;CustTelNo&quot;&lt;/span&gt;:&amp;nbsp;&lt;span style=&quot;color: #0451a5;&quot;&gt;&quot;755526222&quot;&lt;/span&gt;,&lt;/div&gt;&lt;div&gt;&amp;nbsp;&amp;nbsp;&amp;nbsp;&amp;nbsp;&amp;nbsp;&amp;nbsp;&amp;nbsp;&amp;nbsp;&lt;span style=&quot;color: #a31515;&quot;&gt;&quot;CustCellNo&quot;&lt;/span&gt;:&amp;nbsp;&lt;span style=&quot;color: #0451a5;&quot;&gt;&quot;5678634433&quot;&lt;/span&gt;,&lt;/div&gt;&lt;div&gt;&amp;nbsp;&amp;nbsp;&amp;nbsp;&amp;nbsp;&amp;nbsp;&amp;nbsp;&amp;nbsp;&amp;nbsp;&lt;span style=&quot;color: #a31515;&quot;&gt;&quot;CustBeneRelationship&quot;&lt;/span&gt;:&amp;nbsp;&lt;span style=&quot;color: #0451a5;&quot;&gt;&quot;Brother&quot;&lt;/span&gt;,&lt;/div&gt;&lt;div&gt;&amp;nbsp;&amp;nbsp;&amp;nbsp;&amp;nbsp;&amp;nbsp;&amp;nbsp;&amp;nbsp;&amp;nbsp;&lt;span style=&quot;color: #a31515;&quot;&gt;&quot;BeneNameFirst&quot;&lt;/span&gt;:&amp;nbsp;&lt;span style=&quot;color: #0451a5;&quot;&gt;&quot;Ruslan&amp;nbsp;Rashidovich&quot;&lt;/span&gt;,&lt;/div&gt;&lt;div&gt;&amp;nbsp;&amp;nbsp;&amp;nbsp;&amp;nbsp;&amp;nbsp;&amp;nbsp;&amp;nbsp;&amp;nbsp;&lt;span style=&quot;color: #a31515;&quot;&gt;&quot;BeneNameLast1&quot;&lt;/span&gt;:&amp;nbsp;&lt;span style=&quot;color: #0451a5;&quot;&gt;&quot;Raxmatov&quot;&lt;/span&gt;,&lt;/div&gt;&lt;div&gt;&amp;nbsp;&amp;nbsp;&amp;nbsp;&amp;nbsp;&amp;nbsp;&amp;nbsp;&amp;nbsp;&amp;nbsp;&lt;span style=&quot;color: #a31515;&quot;&gt;&quot;BeneAddress&quot;&lt;/span&gt;:&amp;nbsp;&lt;span style=&quot;color: #0451a5;&quot;&gt;&quot;street&amp;nbsp;123&quot;&lt;/span&gt;,&lt;/div&gt;&lt;div&gt;&amp;nbsp;&amp;nbsp;&amp;nbsp;&amp;nbsp;&amp;nbsp;&amp;nbsp;&amp;nbsp;&amp;nbsp;&lt;span style=&quot;color: #a31515;&quot;&gt;&quot;BeneCity&quot;&lt;/span&gt;:&amp;nbsp;&lt;span style=&quot;color: #0451a5;&quot;&gt;&quot;City&quot;&lt;/span&gt;,&lt;/div&gt;&lt;div&gt;&amp;nbsp;&amp;nbsp;&amp;nbsp;&amp;nbsp;&amp;nbsp;&amp;nbsp;&amp;nbsp;&amp;nbsp;&lt;span style=&quot;color: #a31515;&quot;&gt;&quot;BeneCountry&quot;&lt;/span&gt;:&amp;nbsp;&lt;span style=&quot;color: #0451a5;&quot;&gt;&quot;UZ&quot;&lt;/span&gt;,&lt;/div&gt;&lt;div&gt;&amp;nbsp;&amp;nbsp;&amp;nbsp;&amp;nbsp;&amp;nbsp;&amp;nbsp;&amp;nbsp;&amp;nbsp;&lt;span style=&quot;color: #a31515;&quot;&gt;&quot;BeneTelNo&quot;&lt;/span&gt;:&amp;nbsp;&lt;span style=&quot;color: #0451a5;&quot;&gt;&quot;65465654654&quot;&lt;/span&gt;,&lt;/div&gt;&lt;div&gt;&amp;nbsp;&amp;nbsp;&amp;nbsp;&amp;nbsp;&amp;nbsp;&amp;nbsp;&amp;nbsp;&amp;nbsp;&lt;span style=&quot;color: #a31515;&quot;&gt;&quot;BeneCurrency&quot;&lt;/span&gt;:&amp;nbsp;&lt;span style=&quot;color: #0451a5;&quot;&gt;&quot;EUR&quot;&lt;/span&gt;,&lt;/div&gt;&lt;div&gt;&amp;nbsp;&amp;nbsp;&amp;nbsp;&amp;nbsp;&amp;nbsp;&amp;nbsp;&amp;nbsp;&amp;nbsp;&lt;span style=&quot;color: #a31515;&quot;&gt;&quot;BeneAmount&quot;&lt;/span&gt;:&amp;nbsp;&lt;span style=&quot;color: #0451a5;&quot;&gt;&quot;300.00&quot;&lt;/span&gt;,&lt;/div&gt;&lt;div&gt;&amp;nbsp;&amp;nbsp;&amp;nbsp;&amp;nbsp;&amp;nbsp;&amp;nbsp;&amp;nbsp;&amp;nbsp;&lt;span style=&quot;color: #a31515;&quot;&gt;&quot;TransferReason&quot;&lt;/span&gt;:&amp;nbsp;&lt;span style=&quot;color: #0451a5;&quot;&gt;&quot;Wages/Salaries&quot;&lt;/span&gt;,&lt;/div&gt;&lt;div&gt;&amp;nbsp;&amp;nbsp;&amp;nbsp;&amp;nbsp;&amp;nbsp;&amp;nbsp;&amp;nbsp;&amp;nbsp;&lt;span style=&quot;color: #a31515;&quot;&gt;&quot;CustID1Type&quot;&lt;/span&gt;:&amp;nbsp;&lt;span style=&quot;color: #0451a5;&quot;&gt;&quot;Passport&quot;&lt;/span&gt;,&lt;/div&gt;&lt;div&gt;&amp;nbsp;&amp;nbsp;&amp;nbsp;&amp;nbsp;&amp;nbsp;&amp;nbsp;&amp;nbsp;&amp;nbsp;&lt;span style=&quot;color: #a31515;&quot;&gt;&quot;CustID1ExpirationDate&quot;&lt;/span&gt;:&amp;nbsp;&lt;span style=&quot;color: #0451a5;&quot;&gt;&quot;20260101&quot;&lt;/span&gt;,&lt;/div&gt;&lt;div&gt;&amp;nbsp;&amp;nbsp;&amp;nbsp;&amp;nbsp;&amp;nbsp;&amp;nbsp;&amp;nbsp;&amp;nbsp;&lt;span style=&quot;color: #a31515;&quot;&gt;&quot;CustID1IssuedBy&quot;&lt;/span&gt;:&amp;nbsp;&lt;span style=&quot;color: #0451a5;&quot;&gt;&quot;Police&quot;&lt;/span&gt;,&lt;/div&gt;&lt;div&gt;&amp;nbsp;&amp;nbsp;&amp;nbsp;&amp;nbsp;&amp;nbsp;&amp;nbsp;&amp;nbsp;&amp;nbsp;&lt;span style=&quot;color: #a31515;&quot;&gt;&quot;CustID1IssuedByCountry&quot;&lt;/span&gt;:&amp;nbsp;&lt;span style=&quot;color: #0451a5;&quot;&gt;&quot;IL&quot;&lt;/span&gt;,&lt;/div&gt;&lt;div&gt;&amp;nbsp;&amp;nbsp;&amp;nbsp;&amp;nbsp;&amp;nbsp;&amp;nbsp;&amp;nbsp;&amp;nbsp;&lt;span style=&quot;color: #a31515;&quot;&gt;&quot;CustCountryOfBirth&quot;&lt;/span&gt;:&amp;nbsp;&lt;span style=&quot;color: #0451a5;&quot;&gt;&quot;IL&quot;&lt;/span&gt;,&lt;/div&gt;&lt;div&gt;&amp;nbsp;&amp;nbsp;&amp;nbsp;&amp;nbsp;&amp;nbsp;&amp;nbsp;&amp;nbsp;&amp;nbsp;&lt;span style=&quot;color: #a31515;&quot;&gt;&quot;CustDateOfBirth&quot;&lt;/span&gt;:&amp;nbsp;&lt;span style=&quot;color: #0451a5;&quot;&gt;&quot;19850603&quot;&lt;/span&gt;,&lt;/div&gt;&lt;div&gt;&amp;nbsp;&amp;nbsp;&amp;nbsp;&amp;nbsp;&amp;nbsp;&amp;nbsp;&amp;nbsp;&amp;nbsp;&lt;span style=&quot;color: #a31515;&quot;&gt;&quot;CustNationality&quot;&lt;/span&gt;:&amp;nbsp;&lt;span style=&quot;color: #0451a5;&quot;&gt;&quot;IL&quot;&lt;/span&gt;,&lt;/div&gt;&lt;div&gt;&amp;nbsp;&amp;nbsp;&amp;nbsp;&amp;nbsp;&amp;nbsp;&amp;nbsp;&amp;nbsp;&amp;nbsp;&lt;span style=&quot;color: #a31515;&quot;&gt;&quot;ResponseDateTimeUTC&quot;&lt;/span&gt;:&amp;nbsp;&lt;span style=&quot;color: #0451a5;&quot;&gt;&quot;20230417061727&quot;&lt;/span&gt;,&lt;/div&gt;&lt;div&gt;&amp;nbsp;&amp;nbsp;&amp;nbsp;&amp;nbsp;&amp;nbsp;&amp;nbsp;&amp;nbsp;&amp;nbsp;&lt;span style=&quot;color: #a31515;&quot;&gt;&quot;ResponseCode&quot;&lt;/span&gt;:&amp;nbsp;&lt;span style=&quot;color: #0451a5;&quot;&gt;&quot;1000&quot;&lt;/span&gt;,&lt;/div&gt;&lt;div&gt;&amp;nbsp;&amp;nbsp;&amp;nbsp;&amp;nbsp;&amp;nbsp;&amp;nbsp;&amp;nbsp;&amp;nbsp;&lt;span style=&quot;color: #a31515;&quot;&gt;&quot;ResponseText&quot;&lt;/span&gt;:&amp;nbsp;&lt;span style=&quot;color: #0451a5;&quot;&gt;&quot;Order&amp;nbsp;is&amp;nbsp;available&amp;nbsp;for&amp;nbsp;payout.&quot;&lt;/span&gt;&lt;/div&gt;&lt;/div&gt;" style="text;html=1;align=center;verticalAlign=middle;resizable=0;points=[];autosize=1;strokeColor=none;fillColor=none;" vertex="1" parent="KDDWT8gn8KjXPzjt3fRh-7">
          <mxGeometry x="-5" y="40" width="300" height="660" as="geometry" />
        </mxCell>
        <mxCell id="KDDWT8gn8KjXPzjt3fRh-16" value="Status&lt;br&gt;reuqired_filednames&lt;br&gt;required fileds&lt;br&gt;opearion_id" style="whiteSpace=wrap;html=1;" vertex="1" parent="KDDWT8gn8KjXPzjt3fRh-7">
          <mxGeometry x="85" y="700" width="120" height="110" as="geometry" />
        </mxCell>
        <mxCell id="KDDWT8gn8KjXPzjt3fRh-17" value="Id" style="text;html=1;align=center;verticalAlign=middle;resizable=0;points=[];autosize=1;strokeColor=none;fillColor=none;" vertex="1" parent="KDDWT8gn8KjXPzjt3fRh-7">
          <mxGeometry x="130" y="20" width="30" height="30" as="geometry" />
        </mxCell>
        <mxCell id="KDDWT8gn8KjXPzjt3fRh-30" style="edgeStyle=orthogonalEdgeStyle;rounded=0;orthogonalLoop=1;jettySize=auto;html=1;entryX=1.014;entryY=0.924;entryDx=0;entryDy=0;entryPerimeter=0;" edge="1" parent="1" source="KDDWT8gn8KjXPzjt3fRh-8" target="KDDWT8gn8KjXPzjt3fRh-13">
          <mxGeometry relative="1" as="geometry">
            <mxPoint x="470" y="921.6666666666666" as="targetPoint" />
          </mxGeometry>
        </mxCell>
        <mxCell id="KDDWT8gn8KjXPzjt3fRh-8" value="required_fields" style="swimlane;startSize=23;" vertex="1" parent="1">
          <mxGeometry x="470" y="770" width="97.5" height="110" as="geometry" />
        </mxCell>
        <mxCell id="KDDWT8gn8KjXPzjt3fRh-29" value="&lt;pre style=&quot;margin-top: 0px; margin-bottom: calc(1.5em); padding: var(--su12); border: 0px; font-variant-numeric: inherit; font-variant-east-asian: inherit; font-variant-alternates: inherit; font-stretch: inherit; line-height: var(--lh-md); font-family: var(--ff-mono); font-optical-sizing: inherit; font-kerning: inherit; font-feature-settings: inherit; font-variation-settings: inherit; font-size: var(--fs-body1); vertical-align: baseline; box-sizing: inherit; width: auto; max-height: 600px; overflow: auto; background-color: var(--highlight-bg); border-radius: var(--br-md); --_cb-line-numbers-bg:var(--black-050); color: var(--highlight-color); overflow-wrap: normal; text-align: left;&quot; class=&quot;lang-java s-code-block&quot;&gt;&lt;code style=&quot;margin: 0px; padding: 0px; border: 0px; font-style: inherit; font-variant: inherit; font-weight: inherit; font-stretch: inherit; line-height: inherit; font-family: inherit; font-optical-sizing: inherit; font-kerning: inherit; font-feature-settings: inherit; font-variation-settings: inherit; font-size: var(--_pr-code-fs); vertical-align: baseline; box-sizing: inherit; background-color: transparent;&quot; class=&quot;hljs language-java&quot;&gt;    id&lt;br&gt;    key;&lt;br&gt;    value;&lt;/code&gt;&lt;/pre&gt;" style="text;html=1;align=center;verticalAlign=middle;resizable=0;points=[];autosize=1;strokeColor=none;fillColor=none;" vertex="1" parent="KDDWT8gn8KjXPzjt3fRh-8">
          <mxGeometry x="13.75" y="30" width="70" height="70" as="geometry" />
        </mxCell>
        <mxCell id="KDDWT8gn8KjXPzjt3fRh-57" style="edgeStyle=orthogonalEdgeStyle;rounded=0;orthogonalLoop=1;jettySize=auto;html=1;" edge="1" parent="1" source="KDDWT8gn8KjXPzjt3fRh-9">
          <mxGeometry relative="1" as="geometry">
            <mxPoint x="560" y="599.9999999999998" as="targetPoint" />
          </mxGeometry>
        </mxCell>
        <mxCell id="KDDWT8gn8KjXPzjt3fRh-20" style="edgeStyle=orthogonalEdgeStyle;rounded=0;orthogonalLoop=1;jettySize=auto;html=1;entryX=0.5;entryY=1;entryDx=0;entryDy=0;" edge="1" parent="1" source="KDDWT8gn8KjXPzjt3fRh-10" target="KDDWT8gn8KjXPzjt3fRh-7">
          <mxGeometry relative="1" as="geometry">
            <mxPoint x="400" y="1030" as="targetPoint" />
          </mxGeometry>
        </mxCell>
        <mxCell id="KDDWT8gn8KjXPzjt3fRh-10" value="Required filed names" style="swimlane;whiteSpace=wrap;html=1;" vertex="1" parent="1">
          <mxGeometry x="450" y="1030" width="140" height="200" as="geometry" />
        </mxCell>
        <mxCell id="KDDWT8gn8KjXPzjt3fRh-24" value="&lt;b&gt;name&lt;/b&gt;(BeneIDNumber&lt;div&gt;BeneIDExpirationDate&lt;/div&gt;&lt;div&gt;BeneIDType&lt;/div&gt;&lt;div&gt;BeneDateOfBirth&lt;/div&gt;&lt;div&gt;BeneCountryOfBirth&lt;/div&gt;&lt;div&gt;BeneNationality&lt;/div&gt;&lt;div&gt;BeneCity&lt;/div&gt;&lt;div&gt;BeneState&lt;/div&gt;&lt;div&gt;BeneCountry)&lt;/div&gt;" style="text;html=1;align=center;verticalAlign=middle;resizable=0;points=[];autosize=1;strokeColor=none;fillColor=none;" vertex="1" parent="KDDWT8gn8KjXPzjt3fRh-10">
          <mxGeometry y="40" width="140" height="140" as="geometry" />
        </mxCell>
        <mxCell id="KDDWT8gn8KjXPzjt3fRh-21" style="edgeStyle=orthogonalEdgeStyle;rounded=0;orthogonalLoop=1;jettySize=auto;html=1;" edge="1" parent="1" source="KDDWT8gn8KjXPzjt3fRh-12">
          <mxGeometry relative="1" as="geometry">
            <mxPoint x="60" y="960" as="targetPoint" />
          </mxGeometry>
        </mxCell>
        <mxCell id="KDDWT8gn8KjXPzjt3fRh-12" value="Stutus" style="swimlane;whiteSpace=wrap;html=1;startSize=23;" vertex="1" parent="1">
          <mxGeometry x="450" y="930" width="140" height="80" as="geometry" />
        </mxCell>
        <mxCell id="KDDWT8gn8KjXPzjt3fRh-18" value="pre_order&lt;br&gt;ready&lt;br&gt;paid" style="text;html=1;align=center;verticalAlign=middle;resizable=0;points=[];autosize=1;strokeColor=none;fillColor=none;" vertex="1" parent="KDDWT8gn8KjXPzjt3fRh-12">
          <mxGeometry x="20" y="20" width="80" height="60" as="geometry" />
        </mxCell>
        <mxCell id="KDDWT8gn8KjXPzjt3fRh-23" value="Id" style="text;html=1;align=center;verticalAlign=middle;resizable=0;points=[];autosize=1;strokeColor=none;fillColor=none;" vertex="1" parent="1">
          <mxGeometry x="505" y="1048" width="30" height="30" as="geometry" />
        </mxCell>
        <mxCell id="KDDWT8gn8KjXPzjt3fRh-33" value="1-1" style="text;html=1;align=center;verticalAlign=middle;resizable=0;points=[];autosize=1;strokeColor=#82b366;fillColor=#d5e8d4;" vertex="1" parent="1">
          <mxGeometry x="430" y="800" width="40" height="30" as="geometry" />
        </mxCell>
        <mxCell id="KDDWT8gn8KjXPzjt3fRh-51" style="edgeStyle=orthogonalEdgeStyle;rounded=0;orthogonalLoop=1;jettySize=auto;html=1;entryX=0.537;entryY=-0.002;entryDx=0;entryDy=0;entryPerimeter=0;" edge="1" parent="1" source="KDDWT8gn8KjXPzjt3fRh-44" target="KDDWT8gn8KjXPzjt3fRh-7">
          <mxGeometry relative="1" as="geometry" />
        </mxCell>
        <mxCell id="KDDWT8gn8KjXPzjt3fRh-44" value="1-search create&lt;br&gt;2-createupdate&lt;br&gt;3-confirm update" style="html=1;whiteSpace=wrap;fillColor=#f8cecc;strokeColor=#b85450;" vertex="1" parent="1">
          <mxGeometry x="-140" y="140" width="110" height="50" as="geometry" />
        </mxCell>
        <mxCell id="KDDWT8gn8KjXPzjt3fRh-49" style="edgeStyle=orthogonalEdgeStyle;rounded=0;orthogonalLoop=1;jettySize=auto;html=1;entryX=0.573;entryY=-0.018;entryDx=0;entryDy=0;entryPerimeter=0;" edge="1" parent="1" source="KDDWT8gn8KjXPzjt3fRh-46" target="KDDWT8gn8KjXPzjt3fRh-8">
          <mxGeometry relative="1" as="geometry" />
        </mxCell>
        <mxCell id="KDDWT8gn8KjXPzjt3fRh-46" value="2-get create" style="html=1;whiteSpace=wrap;fillColor=#f8cecc;strokeColor=#b85450;" vertex="1" parent="1">
          <mxGeometry x="470" y="700" width="110" height="50" as="geometry" />
        </mxCell>
        <mxCell id="KDDWT8gn8KjXPzjt3fRh-53" value="opearition" style="swimlane;" vertex="1" parent="1">
          <mxGeometry x="269" y="130" width="381" height="550" as="geometry" />
        </mxCell>
        <mxCell id="KDDWT8gn8KjXPzjt3fRh-54" value="&lt;div style=&quot;background-color: rgb(255, 255, 254); line-height: 18px;&quot;&gt;&lt;br&gt;&lt;/div&gt;" style="text;html=1;align=center;verticalAlign=middle;resizable=0;points=[];autosize=1;strokeColor=none;fillColor=none;" vertex="1" parent="KDDWT8gn8KjXPzjt3fRh-53">
          <mxGeometry x="135" y="355" width="20" height="30" as="geometry" />
        </mxCell>
        <mxCell id="KDDWT8gn8KjXPzjt3fRh-9" value="details" style="swimlane;startSize=23;" vertex="1" parent="KDDWT8gn8KjXPzjt3fRh-53">
          <mxGeometry x="10" y="320" width="361" height="240" as="geometry" />
        </mxCell>
        <mxCell id="KDDWT8gn8KjXPzjt3fRh-36" value="&lt;div style=&quot;box-sizing: border-box; position: relative; margin-left: 25px; color: rgb(45, 53, 60); font-family: Consolas, Menlo, Courier, monospace; font-size: 14px; letter-spacing: 0.25px; text-align: left; background-color: rgb(248, 249, 250);&quot; class=&quot;jv-node jv-key-node&quot;&gt;TransRefID:&lt;span style=&quot;box-sizing: border-box;&quot; class=&quot;jv-push&quot;&gt;&lt;span style=&quot;box-sizing: border-box;&quot; class=&quot;jv-holder-node&quot;&gt;&lt;/span&gt;&lt;span style=&quot;box-sizing: border-box; color: rgb(255, 97, 0); word-break: break-word; tab-size: 4; font-family: Consolas, Monaco, &amp;quot;Andale Mono&amp;quot;, &amp;quot;Ubuntu Mono&amp;quot;, monospace;&quot; class=&quot;jv-item jv-string&quot;&gt;&quot;42840301&quot;&lt;/span&gt;&lt;/span&gt;&lt;/div&gt;&lt;div style=&quot;box-sizing: border-box; position: relative; margin-left: 25px; color: rgb(45, 53, 60); font-family: Consolas, Menlo, Courier, monospace; font-size: 14px; letter-spacing: 0.25px; text-align: left; background-color: rgb(248, 249, 250);&quot; class=&quot;jv-node jv-key-node&quot;&gt;&lt;span style=&quot;box-sizing: border-box; margin-right: 4px;&quot; class=&quot;jv-key&quot;&gt;OrderNo:&lt;/span&gt;&lt;span style=&quot;box-sizing: border-box;&quot; class=&quot;jv-push&quot;&gt;&lt;span style=&quot;box-sizing: border-box;&quot; class=&quot;jv-holder-node&quot;&gt;&lt;/span&gt;&lt;span style=&quot;box-sizing: border-box; color: rgb(255, 97, 0); word-break: break-word; tab-size: 4; font-family: Consolas, Monaco, &amp;quot;Andale Mono&amp;quot;, &amp;quot;Ubuntu Mono&amp;quot;, monospace;&quot; class=&quot;jv-item jv-string&quot;&gt;&quot;US1600074916&quot;&lt;/span&gt;&lt;/span&gt;&lt;/div&gt;&lt;div style=&quot;box-sizing: border-box; position: relative; margin-left: 25px; color: rgb(45, 53, 60); font-family: Consolas, Menlo, Courier, monospace; font-size: 14px; letter-spacing: 0.25px; text-align: left; background-color: rgb(248, 249, 250);&quot; class=&quot;jv-node jv-key-node&quot;&gt;&lt;span style=&quot;box-sizing: border-box; margin-right: 4px;&quot; class=&quot;jv-key&quot;&gt;PIN:&lt;/span&gt;&lt;span style=&quot;box-sizing: border-box;&quot; class=&quot;jv-push&quot;&gt;&lt;span style=&quot;box-sizing: border-box;&quot; class=&quot;jv-holder-node&quot;&gt;&lt;/span&gt;&lt;span style=&quot;box-sizing: border-box; color: rgb(255, 97, 0); word-break: break-word; tab-size: 4; font-family: Consolas, Monaco, &amp;quot;Andale Mono&amp;quot;, &amp;quot;Ubuntu Mono&amp;quot;, monospace;&quot; class=&quot;jv-item jv-string&quot;&gt;&quot;12000651867&quot;&lt;/span&gt;&lt;/span&gt;&lt;/div&gt;&lt;div style=&quot;box-sizing: border-box; position: relative; margin-left: 25px; color: rgb(45, 53, 60); font-family: Consolas, Menlo, Courier, monospace; font-size: 14px; letter-spacing: 0.25px; text-align: left; background-color: rgb(248, 249, 250);&quot; class=&quot;jv-node jv-key-node&quot;&gt;&lt;span style=&quot;box-sizing: border-box; margin-right: 4px;&quot; class=&quot;jv-key&quot;&gt;BeneCurrency:&lt;/span&gt;&lt;span style=&quot;box-sizing: border-box;&quot; class=&quot;jv-push&quot;&gt;&lt;span style=&quot;box-sizing: border-box;&quot; class=&quot;jv-holder-node&quot;&gt;&lt;/span&gt;&lt;span style=&quot;box-sizing: border-box; color: rgb(255, 97, 0); word-break: break-word; tab-size: 4; font-family: Consolas, Monaco, &amp;quot;Andale Mono&amp;quot;, &amp;quot;Ubuntu Mono&amp;quot;, monospace;&quot; class=&quot;jv-item jv-string&quot;&gt;&quot;USD&quot;&lt;/span&gt;&lt;/span&gt;&lt;/div&gt;&lt;div style=&quot;box-sizing: border-box; position: relative; margin-left: 25px; color: rgb(45, 53, 60); font-family: Consolas, Menlo, Courier, monospace; font-size: 14px; letter-spacing: 0.25px; text-align: left; background-color: rgb(248, 249, 250);&quot; class=&quot;jv-node jv-key-node&quot;&gt;&lt;span style=&quot;box-sizing: border-box; margin-right: 4px;&quot; class=&quot;jv-key&quot;&gt;BeneAmount:&lt;/span&gt;&lt;span style=&quot;box-sizing: border-box;&quot; class=&quot;jv-push&quot;&gt;&lt;span style=&quot;box-sizing: border-box;&quot; class=&quot;jv-holder-node&quot;&gt;&lt;/span&gt;&lt;span style=&quot;box-sizing: border-box; color: rgb(255, 97, 0); word-break: break-word; tab-size: 4; font-family: Consolas, Monaco, &amp;quot;Andale Mono&amp;quot;, &amp;quot;Ubuntu Mono&amp;quot;, monospace;&quot; class=&quot;jv-item jv-string&quot;&gt;&quot;100.00&quot;&lt;/span&gt;&lt;/span&gt;&lt;/div&gt;&lt;div style=&quot;box-sizing: border-box; position: relative; margin-left: 25px; color: rgb(45, 53, 60); font-family: Consolas, Menlo, Courier, monospace; font-size: 14px; letter-spacing: 0.25px; text-align: left; background-color: rgb(248, 249, 250);&quot; class=&quot;jv-node jv-key-node&quot;&gt;&lt;span style=&quot;box-sizing: border-box; margin-right: 4px;&quot; class=&quot;jv-key&quot;&gt;PCCommissionCurrency:&lt;/span&gt;&lt;span style=&quot;box-sizing: border-box;&quot; class=&quot;jv-push&quot;&gt;&lt;span style=&quot;box-sizing: border-box;&quot; class=&quot;jv-holder-node&quot;&gt;&lt;/span&gt;&lt;span style=&quot;box-sizing: border-box; color: rgb(255, 97, 0); word-break: break-word; tab-size: 4; font-family: Consolas, Monaco, &amp;quot;Andale Mono&amp;quot;, &amp;quot;Ubuntu Mono&amp;quot;, monospace;&quot; class=&quot;jv-item jv-string&quot;&gt;&quot;USD&quot;&lt;/span&gt;&lt;/span&gt;&lt;/div&gt;&lt;div style=&quot;box-sizing: border-box; position: relative; margin-left: 25px; color: rgb(45, 53, 60); font-family: Consolas, Menlo, Courier, monospace; font-size: 14px; letter-spacing: 0.25px; text-align: left; background-color: rgb(248, 249, 250);&quot; class=&quot;jv-node jv-key-node&quot;&gt;&lt;span style=&quot;box-sizing: border-box; margin-right: 4px;&quot; class=&quot;jv-key&quot;&gt;PCCommissionAmount:&lt;/span&gt;&lt;span style=&quot;box-sizing: border-box;&quot; class=&quot;jv-push&quot;&gt;&lt;span style=&quot;box-sizing: border-box;&quot; class=&quot;jv-holder-node&quot;&gt;&lt;/span&gt;&lt;span style=&quot;box-sizing: border-box; color: rgb(255, 97, 0); word-break: break-word; tab-size: 4; font-family: Consolas, Monaco, &amp;quot;Andale Mono&amp;quot;, &amp;quot;Ubuntu Mono&amp;quot;, monospace;&quot; class=&quot;jv-item jv-string&quot;&gt;&quot;0.60&quot;&lt;/span&gt;&lt;/span&gt;&lt;/div&gt;&lt;div style=&quot;box-sizing: border-box; position: relative; margin-left: 25px; color: rgb(45, 53, 60); font-family: Consolas, Menlo, Courier, monospace; font-size: 14px; letter-spacing: 0.25px; text-align: left; background-color: rgb(248, 249, 250);&quot; class=&quot;jv-node jv-key-node&quot;&gt;&lt;span style=&quot;box-sizing: border-box; margin-right: 4px;&quot; class=&quot;jv-key&quot;&gt;ResponseDateTimeUTC:&lt;/span&gt;&lt;span style=&quot;box-sizing: border-box;&quot; class=&quot;jv-push&quot;&gt;&lt;span style=&quot;box-sizing: border-box;&quot; class=&quot;jv-holder-node&quot;&gt;&lt;/span&gt;&lt;span style=&quot;box-sizing: border-box; color: rgb(255, 97, 0); word-break: break-word; tab-size: 4; font-family: Consolas, Monaco, &amp;quot;Andale Mono&amp;quot;, &amp;quot;Ubuntu Mono&amp;quot;, monospace;&quot; class=&quot;jv-item jv-string&quot;&gt;&quot;20211203165321&quot;&lt;/span&gt;&lt;/span&gt;&lt;/div&gt;&lt;div style=&quot;box-sizing: border-box; position: relative; margin-left: 25px; color: rgb(45, 53, 60); font-family: Consolas, Menlo, Courier, monospace; font-size: 14px; letter-spacing: 0.25px; text-align: left; background-color: rgb(248, 249, 250);&quot; class=&quot;jv-node jv-key-node&quot;&gt;&lt;span style=&quot;box-sizing: border-box; margin-right: 4px;&quot; class=&quot;jv-key&quot;&gt;ResponseCode:&lt;/span&gt;&lt;span style=&quot;box-sizing: border-box;&quot; class=&quot;jv-push&quot;&gt;&lt;span style=&quot;box-sizing: border-box;&quot; class=&quot;jv-holder-node&quot;&gt;&lt;/span&gt;&lt;span style=&quot;box-sizing: border-box; color: rgb(255, 97, 0); word-break: break-word; tab-size: 4; font-family: Consolas, Monaco, &amp;quot;Andale Mono&amp;quot;, &amp;quot;Ubuntu Mono&amp;quot;, monospace;&quot; class=&quot;jv-item jv-string&quot;&gt;&quot;1000&quot;&lt;/span&gt;&lt;/span&gt;&lt;/div&gt;&lt;div style=&quot;box-sizing: border-box; position: relative; margin-left: 25px; color: rgb(45, 53, 60); font-family: Consolas, Menlo, Courier, monospace; font-size: 14px; letter-spacing: 0.25px; text-align: left; background-color: rgb(248, 249, 250);&quot; class=&quot;jv-node jv-key-node&quot;&gt;&lt;span style=&quot;box-sizing: border-box; margin-right: 4px;&quot; class=&quot;jv-key&quot;&gt;ResponseText:&lt;/span&gt;&lt;span style=&quot;box-sizing: border-box;&quot; class=&quot;jv-push&quot;&gt;&lt;span style=&quot;box-sizing: border-box;&quot; class=&quot;jv-holder-node&quot;&gt;&lt;/span&gt;&lt;span style=&quot;box-sizing: border-box; color: rgb(255, 97, 0); word-break: break-word; tab-size: 4; font-family: Consolas, Monaco, &amp;quot;Andale Mono&amp;quot;, &amp;quot;Ubuntu Mono&amp;quot;, monospace;&quot; class=&quot;jv-item jv-string&quot;&gt;&quot;Order confirmed as paid.&quot;&lt;/span&gt;&lt;/span&gt;&lt;/div&gt;" style="text;html=1;align=center;verticalAlign=middle;resizable=0;points=[];autosize=1;strokeColor=none;fillColor=none;" vertex="1" parent="KDDWT8gn8KjXPzjt3fRh-9">
          <mxGeometry x="-9" y="50" width="360" height="180" as="geometry" />
        </mxCell>
        <mxCell id="KDDWT8gn8KjXPzjt3fRh-32" value="Id" style="text;html=1;align=center;verticalAlign=middle;resizable=0;points=[];autosize=1;strokeColor=none;fillColor=none;" vertex="1" parent="KDDWT8gn8KjXPzjt3fRh-9">
          <mxGeometry x="180" y="50" width="30" height="30" as="geometry" />
        </mxCell>
        <mxCell id="KDDWT8gn8KjXPzjt3fRh-58" value="1-1" style="text;html=1;align=center;verticalAlign=middle;resizable=0;points=[];autosize=1;strokeColor=#82b366;fillColor=#d5e8d4;" vertex="1" parent="1">
          <mxGeometry x="90" y="530" width="40" height="30" as="geometry" />
        </mxCell>
      </root>
    </mxGraphModel>
  </diagram>
</mxfile>
